<mxfile host="app.diagrams.net" agent="Mozilla/5.0 (Windows NT 10.0; Win64; x64) AppleWebKit/537.36 (KHTML, like Gecko) Chrome/133.0.0.0 Safari/537.36 OPR/118.0.0.0" scale="1" border="0" version="26.2.15">
  <diagram name="Page-1" id="g5cH1t0SmlpA87fEUwU-">
    <mxGraphModel dx="988" dy="562" grid="1" gridSize="10" guides="1" tooltips="1" connect="1" arrows="1" fold="1" page="1" pageScale="1" pageWidth="850" pageHeight="1100" math="0" shadow="0">
      <root>
        <mxCell id="0" />
        <mxCell id="1" parent="0" />
        <mxCell id="zhgyyv9RaAxmv2rtKqCu-2" value="Customer" style="shape=umlActor;verticalLabelPosition=bottom;verticalAlign=top;html=1;" parent="1" vertex="1">
          <mxGeometry x="70" y="1070" width="30" height="60" as="geometry" />
        </mxCell>
        <mxCell id="zhgyyv9RaAxmv2rtKqCu-3" value="Manage account" style="ellipse;whiteSpace=wrap;html=1;align=center;fillColor=#fff2cc;strokeColor=light-dark(#000000, #6d5100);strokeWidth=2;" parent="1" vertex="1">
          <mxGeometry x="190" y="1080" width="100" height="40" as="geometry" />
        </mxCell>
        <mxCell id="zhgyyv9RaAxmv2rtKqCu-4" value="View account information" style="ellipse;whiteSpace=wrap;html=1;align=center;fillColor=#fff2cc;strokeColor=light-dark(#000000, #6d5100);strokeWidth=2;" parent="1" vertex="1">
          <mxGeometry x="415" y="1080" width="100" height="40" as="geometry" />
        </mxCell>
        <mxCell id="zhgyyv9RaAxmv2rtKqCu-5" value="Update account information" style="ellipse;whiteSpace=wrap;html=1;align=center;fillColor=#fff2cc;strokeColor=light-dark(#000000, #6d5100);strokeWidth=2;" parent="1" vertex="1">
          <mxGeometry x="415" y="1010" width="100" height="40" as="geometry" />
        </mxCell>
        <mxCell id="zhgyyv9RaAxmv2rtKqCu-6" value="Change resident status" style="ellipse;whiteSpace=wrap;html=1;align=center;fillColor=#fff2cc;strokeColor=light-dark(#000000, #6d5100);strokeWidth=2;" parent="1" vertex="1">
          <mxGeometry x="415" y="1150" width="100" height="40" as="geometry" />
        </mxCell>
        <mxCell id="zhgyyv9RaAxmv2rtKqCu-7" value="&amp;lt;&amp;lt;include&amp;gt;&amp;gt;" style="html=1;verticalAlign=bottom;endArrow=open;dashed=1;endSize=8;curved=0;rounded=0;exitX=0;exitY=0.5;exitDx=0;exitDy=0;entryX=1;entryY=0.5;entryDx=0;entryDy=0;" parent="1" source="zhgyyv9RaAxmv2rtKqCu-4" target="zhgyyv9RaAxmv2rtKqCu-3" edge="1">
          <mxGeometry relative="1" as="geometry">
            <mxPoint x="645" y="1200" as="sourcePoint" />
            <mxPoint x="380" y="1088.421052631579" as="targetPoint" />
          </mxGeometry>
        </mxCell>
        <mxCell id="zhgyyv9RaAxmv2rtKqCu-8" value="&amp;lt;&amp;lt;extend&amp;gt;&amp;gt;" style="html=1;verticalAlign=bottom;endArrow=open;dashed=1;endSize=8;curved=0;rounded=0;entryX=1;entryY=0;entryDx=0;entryDy=0;exitX=0;exitY=0.5;exitDx=0;exitDy=0;" parent="1" source="zhgyyv9RaAxmv2rtKqCu-5" target="zhgyyv9RaAxmv2rtKqCu-3" edge="1">
          <mxGeometry x="0.0001" y="13" relative="1" as="geometry">
            <mxPoint x="420" y="1040" as="sourcePoint" />
            <mxPoint x="295" y="1126" as="targetPoint" />
            <mxPoint as="offset" />
          </mxGeometry>
        </mxCell>
        <mxCell id="zhgyyv9RaAxmv2rtKqCu-9" value="&amp;lt;&amp;lt;extend&amp;gt;&amp;gt;" style="html=1;verticalAlign=bottom;endArrow=open;dashed=1;endSize=8;curved=0;rounded=0;entryX=1;entryY=1;entryDx=0;entryDy=0;exitX=0;exitY=0.5;exitDx=0;exitDy=0;" parent="1" source="zhgyyv9RaAxmv2rtKqCu-6" target="zhgyyv9RaAxmv2rtKqCu-3" edge="1">
          <mxGeometry relative="1" as="geometry">
            <mxPoint x="420" y="1140" as="sourcePoint" />
            <mxPoint x="310" y="1140" as="targetPoint" />
          </mxGeometry>
        </mxCell>
        <mxCell id="zhgyyv9RaAxmv2rtKqCu-14" value="" style="endArrow=none;html=1;rounded=0;exitX=0.5;exitY=0.5;exitDx=0;exitDy=0;exitPerimeter=0;entryX=0;entryY=0.5;entryDx=0;entryDy=0;" parent="1" source="zhgyyv9RaAxmv2rtKqCu-2" target="zhgyyv9RaAxmv2rtKqCu-3" edge="1">
          <mxGeometry width="50" height="50" relative="1" as="geometry">
            <mxPoint x="150" y="1240" as="sourcePoint" />
            <mxPoint x="200" y="1190" as="targetPoint" />
          </mxGeometry>
        </mxCell>
        <mxCell id="zhgyyv9RaAxmv2rtKqCu-15" value="Manager" style="shape=umlActor;verticalLabelPosition=bottom;verticalAlign=top;html=1;" parent="1" vertex="1">
          <mxGeometry x="1120" y="1140" width="30" height="60" as="geometry" />
        </mxCell>
        <mxCell id="mrIronFKmgXclrQIu5as-3" value="Manage account" style="shape=umlFrame;whiteSpace=wrap;html=1;pointerEvents=0;width=130;height=30;" parent="1" vertex="1">
          <mxGeometry x="160" y="910" width="910" height="480" as="geometry" />
        </mxCell>
        <mxCell id="mrIronFKmgXclrQIu5as-4" value="Condition: customer wants to change resident status&lt;div&gt;Extension point:&amp;nbsp;Change resident status requested&lt;/div&gt;" style="whiteSpace=wrap;html=1;align=left;" parent="1" vertex="1">
          <mxGeometry x="170" y="1210" width="310" height="30" as="geometry" />
        </mxCell>
        <mxCell id="mrIronFKmgXclrQIu5as-7" value="" style="html=1;verticalAlign=bottom;endArrow=open;dashed=1;endSize=8;curved=0;rounded=0;exitX=0.5;exitY=0;exitDx=0;exitDy=0;" parent="1" source="mrIronFKmgXclrQIu5as-4" edge="1">
          <mxGeometry x="0.75" y="-30" relative="1" as="geometry">
            <mxPoint x="350" y="1500" as="sourcePoint" />
            <mxPoint x="350" y="1150" as="targetPoint" />
            <mxPoint as="offset" />
          </mxGeometry>
        </mxCell>
        <mxCell id="rDj5MFoZY1iwBANG8hvP-2" value="Upload evidence" style="ellipse;whiteSpace=wrap;html=1;align=center;fillColor=#fff2cc;strokeColor=light-dark(#000000, #6d5100);strokeWidth=2;" vertex="1" parent="1">
          <mxGeometry x="640" y="1080" width="100" height="40" as="geometry" />
        </mxCell>
        <mxCell id="rDj5MFoZY1iwBANG8hvP-3" value="&amp;lt;&amp;lt;include&amp;gt;&amp;gt;" style="html=1;verticalAlign=bottom;endArrow=open;dashed=1;endSize=8;curved=0;rounded=0;entryX=1;entryY=0.5;entryDx=0;entryDy=0;exitX=0;exitY=1;exitDx=0;exitDy=0;" edge="1" parent="1" source="rDj5MFoZY1iwBANG8hvP-2" target="zhgyyv9RaAxmv2rtKqCu-6">
          <mxGeometry x="-0.0476" y="20" relative="1" as="geometry">
            <mxPoint x="425" y="1180" as="sourcePoint" />
            <mxPoint x="285" y="1124" as="targetPoint" />
            <mxPoint as="offset" />
          </mxGeometry>
        </mxCell>
        <mxCell id="rDj5MFoZY1iwBANG8hvP-4" value="&amp;lt;&amp;lt;extend&amp;gt;&amp;gt;" style="html=1;verticalAlign=bottom;endArrow=open;dashed=1;endSize=8;curved=0;rounded=0;entryX=1;entryY=1;entryDx=0;entryDy=0;exitX=0;exitY=0.5;exitDx=0;exitDy=0;" edge="1" parent="1" source="zhgyyv9RaAxmv2rtKqCu-6" target="zhgyyv9RaAxmv2rtKqCu-3">
          <mxGeometry relative="1" as="geometry">
            <mxPoint x="415" y="1170" as="sourcePoint" />
            <mxPoint x="275" y="1114" as="targetPoint" />
            <Array as="points">
              <mxPoint x="390" y="1160" />
            </Array>
          </mxGeometry>
        </mxCell>
        <mxCell id="rDj5MFoZY1iwBANG8hvP-5" value="Review application" style="ellipse;whiteSpace=wrap;html=1;align=center;fillColor=#fff2cc;strokeColor=light-dark(#000000, #6d5100);strokeWidth=2;" vertex="1" parent="1">
          <mxGeometry x="865" y="1040" width="100" height="40" as="geometry" />
        </mxCell>
        <mxCell id="rDj5MFoZY1iwBANG8hvP-6" value="&amp;lt;&amp;lt;include&amp;gt;&amp;gt;" style="html=1;verticalAlign=bottom;endArrow=open;dashed=1;endSize=8;curved=0;rounded=0;entryX=1;entryY=0;entryDx=0;entryDy=0;exitX=0;exitY=0.5;exitDx=0;exitDy=0;" edge="1" parent="1" source="rDj5MFoZY1iwBANG8hvP-5" target="rDj5MFoZY1iwBANG8hvP-2">
          <mxGeometry x="0.0374" y="15" relative="1" as="geometry">
            <mxPoint x="810" y="1210" as="sourcePoint" />
            <mxPoint x="525" y="1180" as="targetPoint" />
            <mxPoint x="-1" as="offset" />
          </mxGeometry>
        </mxCell>
        <mxCell id="rDj5MFoZY1iwBANG8hvP-7" value="" style="endArrow=none;html=1;rounded=0;exitX=0.5;exitY=0.5;exitDx=0;exitDy=0;exitPerimeter=0;entryX=1;entryY=0.5;entryDx=0;entryDy=0;" edge="1" parent="1" source="zhgyyv9RaAxmv2rtKqCu-15" target="rDj5MFoZY1iwBANG8hvP-5">
          <mxGeometry width="50" height="50" relative="1" as="geometry">
            <mxPoint x="95" y="1110" as="sourcePoint" />
            <mxPoint x="200" y="1110" as="targetPoint" />
          </mxGeometry>
        </mxCell>
        <mxCell id="rDj5MFoZY1iwBANG8hvP-8" value="Validate information" style="ellipse;whiteSpace=wrap;html=1;align=center;fillColor=#fff2cc;strokeColor=light-dark(#000000, #6d5100);strokeWidth=2;" vertex="1" parent="1">
          <mxGeometry x="865" y="1150" width="100" height="40" as="geometry" />
        </mxCell>
        <mxCell id="rDj5MFoZY1iwBANG8hvP-9" value="Update resident status" style="ellipse;whiteSpace=wrap;html=1;align=center;fillColor=#fff2cc;strokeColor=light-dark(#000000, #6d5100);strokeWidth=2;" vertex="1" parent="1">
          <mxGeometry x="865" y="1270" width="100" height="40" as="geometry" />
        </mxCell>
        <mxCell id="rDj5MFoZY1iwBANG8hvP-10" value="&amp;lt;&amp;lt;include&amp;gt;&amp;gt;" style="html=1;verticalAlign=bottom;endArrow=open;dashed=1;endSize=8;curved=0;rounded=0;entryX=0.5;entryY=1;entryDx=0;entryDy=0;exitX=0.5;exitY=0;exitDx=0;exitDy=0;" edge="1" parent="1" source="rDj5MFoZY1iwBANG8hvP-8" target="rDj5MFoZY1iwBANG8hvP-5">
          <mxGeometry x="-0.4286" relative="1" as="geometry">
            <mxPoint x="875" y="1180" as="sourcePoint" />
            <mxPoint x="730" y="1180" as="targetPoint" />
            <mxPoint as="offset" />
          </mxGeometry>
        </mxCell>
        <mxCell id="rDj5MFoZY1iwBANG8hvP-11" value="" style="endArrow=none;html=1;rounded=0;exitX=0.5;exitY=0.5;exitDx=0;exitDy=0;exitPerimeter=0;entryX=1;entryY=0.5;entryDx=0;entryDy=0;" edge="1" parent="1" source="zhgyyv9RaAxmv2rtKqCu-15" target="rDj5MFoZY1iwBANG8hvP-8">
          <mxGeometry width="50" height="50" relative="1" as="geometry">
            <mxPoint x="1145" y="1180" as="sourcePoint" />
            <mxPoint x="975" y="1070" as="targetPoint" />
          </mxGeometry>
        </mxCell>
        <mxCell id="rDj5MFoZY1iwBANG8hvP-12" value="" style="endArrow=none;html=1;rounded=0;exitX=0.5;exitY=0.5;exitDx=0;exitDy=0;exitPerimeter=0;entryX=1;entryY=0.5;entryDx=0;entryDy=0;" edge="1" parent="1" source="zhgyyv9RaAxmv2rtKqCu-15" target="rDj5MFoZY1iwBANG8hvP-9">
          <mxGeometry width="50" height="50" relative="1" as="geometry">
            <mxPoint x="1145" y="1180" as="sourcePoint" />
            <mxPoint x="975" y="1180" as="targetPoint" />
          </mxGeometry>
        </mxCell>
        <mxCell id="rDj5MFoZY1iwBANG8hvP-14" value="&amp;lt;&amp;lt;extend&amp;gt;&amp;gt;" style="html=1;verticalAlign=bottom;endArrow=open;dashed=1;endSize=8;curved=0;rounded=0;entryX=0.5;entryY=1;entryDx=0;entryDy=0;exitX=0.5;exitY=0;exitDx=0;exitDy=0;" edge="1" parent="1" source="rDj5MFoZY1iwBANG8hvP-9" target="rDj5MFoZY1iwBANG8hvP-8">
          <mxGeometry x="-0.25" relative="1" as="geometry">
            <mxPoint x="985" y="1240" as="sourcePoint" />
            <mxPoint x="860" y="1240" as="targetPoint" />
            <mxPoint as="offset" />
          </mxGeometry>
        </mxCell>
        <mxCell id="rDj5MFoZY1iwBANG8hvP-15" value="Condition: manager decided to update resident status&lt;div&gt;Extension point:&amp;nbsp;information validate successfully&lt;/div&gt;" style="whiteSpace=wrap;html=1;align=left;" vertex="1" parent="1">
          <mxGeometry x="530" y="1280" width="290" height="30" as="geometry" />
        </mxCell>
        <mxCell id="rDj5MFoZY1iwBANG8hvP-16" value="Condition: customer wants to update account information&lt;div&gt;Extension point:&amp;nbsp;Update account requested&lt;/div&gt;" style="whiteSpace=wrap;html=1;align=left;" vertex="1" parent="1">
          <mxGeometry x="170" y="960" width="310" height="30" as="geometry" />
        </mxCell>
        <mxCell id="rDj5MFoZY1iwBANG8hvP-17" value="" style="html=1;verticalAlign=bottom;endArrow=open;dashed=1;endSize=8;curved=0;rounded=0;exitX=0.5;exitY=1;exitDx=0;exitDy=0;" edge="1" parent="1" source="rDj5MFoZY1iwBANG8hvP-16">
          <mxGeometry x="0.75" y="-30" relative="1" as="geometry">
            <mxPoint x="335" y="1220" as="sourcePoint" />
            <mxPoint x="370" y="1050" as="targetPoint" />
            <mxPoint as="offset" />
          </mxGeometry>
        </mxCell>
        <mxCell id="rDj5MFoZY1iwBANG8hvP-18" value="" style="html=1;verticalAlign=bottom;endArrow=open;dashed=1;endSize=8;curved=0;rounded=0;exitX=1;exitY=0;exitDx=0;exitDy=0;" edge="1" parent="1" source="rDj5MFoZY1iwBANG8hvP-15">
          <mxGeometry x="0.75" y="-30" relative="1" as="geometry">
            <mxPoint x="335" y="1220" as="sourcePoint" />
            <mxPoint x="910" y="1250" as="targetPoint" />
            <mxPoint as="offset" />
          </mxGeometry>
        </mxCell>
      </root>
    </mxGraphModel>
  </diagram>
</mxfile>
